# Blender v2.80 (sub 75) OBJ File: 'Submarine.blend'
# www.blender.org
mtllib Submarine.mtl
o Cube.001_Cube.002
v -0.032384 0.123519 -1.236885
v 0.030957 0.123519 -1.236885
v 0.084712 0.000000 1.039832
v -0.086138 0.000000 1.039832
v 0.087441 0.000000 -0.287228
v -0.088867 0.000000 -0.287228
v -0.073432 0.181211 -1.236885
v 0.072006 0.181211 -1.236885
v 0.195431 0.160582 1.039832
v -0.196857 0.160582 1.039832
v 0.201697 0.160582 -0.287228
v -0.203123 0.160582 -0.287228
v -0.174927 0.076873 -0.287228
v 0.173501 0.076873 -0.287228
v -0.169534 0.076873 1.039832
v 0.168108 0.076873 1.039832
v 0.061876 0.151137 -1.236885
v -0.063302 0.151137 -1.236885
v -0.073432 0.204964 -1.236885
v 0.072006 0.204964 -1.236885
v 0.195431 0.226699 1.039832
v -0.196857 0.226699 1.039832
v 0.201697 0.226699 -0.287228
v -0.203123 0.226699 -0.287228
v -0.061695 0.235766 -1.236885
v 0.060269 0.235766 -1.236885
v 0.163773 0.312434 1.039832
v -0.165199 0.312434 1.039832
v 0.169027 0.312434 -0.287228
v -0.170453 0.312434 -0.287228
v -0.036499 0.260067 -1.236885
v 0.035073 0.260067 -1.236885
v 0.095812 0.380076 1.039832
v -0.097238 0.380076 1.039832
v 0.098895 0.380076 -0.287228
v -0.100321 0.380076 -0.287228
v 0.020675 0.144511 1.314319
v -0.022101 0.144511 1.314319
v 0.048396 0.184716 1.314319
v -0.049822 0.184716 1.314319
v -0.042981 0.163758 1.314319
v 0.041555 0.163758 1.314319
v 0.048396 0.201271 1.314319
v -0.049822 0.201271 1.314319
v 0.040470 0.222736 1.314319
v -0.041896 0.222736 1.314319
v 0.023454 0.239672 1.314319
v -0.024880 0.239672 1.314319
v -0.190916 0.161557 1.187696
v -0.146884 0.168785 1.252233
v -0.146884 0.218057 1.252233
v -0.190916 0.225672 1.187696
v -0.123292 0.281948 1.252233
v -0.160217 0.308810 1.187696
v 0.082125 0.005838 1.187696
v 0.062947 0.049115 1.252233
v -0.064373 0.049115 1.252233
v -0.083550 0.005838 1.187696
v 0.162995 0.080383 1.187696
v 0.125096 0.106402 1.252233
v 0.158791 0.308810 1.187696
v 0.121866 0.281948 1.252233
v 0.145458 0.218057 1.252233
v 0.189491 0.225672 1.187696
v 0.092888 0.374403 1.187696
v 0.071220 0.332356 1.252233
v 0.145458 0.168785 1.252233
v 0.189491 0.161557 1.187696
v -0.094314 0.374403 1.187696
v -0.072646 0.332356 1.252233
v -0.126522 0.106402 1.252233
v -0.164421 0.080383 1.187696
v -0.032384 0.123519 -1.294247
v 0.030957 0.123519 -1.294247
v -0.073432 0.181211 -1.294247
v 0.072006 0.181211 -1.294247
v 0.061876 0.151137 -1.294247
v -0.063302 0.151137 -1.294247
v -0.073432 0.204964 -1.294247
v 0.072006 0.204964 -1.294247
v -0.061695 0.235766 -1.294247
v 0.060269 0.235766 -1.294247
v -0.036499 0.260067 -1.294247
v 0.035073 0.260067 -1.294247
v -0.052970 0.078500 -1.236885
v 0.051544 0.078500 -1.236885
v 0.102560 0.124069 -1.236885
v 0.119275 0.173692 -1.236885
v -0.120701 0.173692 -1.236885
v -0.103986 0.124069 -1.236885
v 0.119275 0.212886 -1.236885
v 0.099908 0.263709 -1.236885
v -0.120701 0.212886 -1.236885
v -0.059760 0.303807 -1.236885
v -0.101335 0.263709 -1.236885
v 0.058334 0.303807 -1.236885
v -0.052970 0.078500 -1.294247
v 0.051544 0.078500 -1.294247
v 0.102560 0.124069 -1.294247
v 0.119275 0.173692 -1.294247
v -0.120701 0.173692 -1.294247
v -0.103986 0.124069 -1.294247
v 0.119275 0.212886 -1.294247
v 0.099908 0.263709 -1.294247
v -0.120701 0.212886 -1.294247
v -0.059760 0.303807 -1.294247
v -0.101335 0.263709 -1.294247
v 0.058334 0.303807 -1.294247
v -0.062193 0.058330 -1.239474
v 0.060767 0.058330 -1.239474
v 0.120787 0.111943 -1.239474
v 0.140452 0.170324 -1.239474
v -0.141878 0.170324 -1.239474
v -0.122213 0.111943 -1.239474
v 0.140452 0.216435 -1.239474
v 0.117667 0.276229 -1.239474
v -0.141878 0.216435 -1.239474
v -0.070182 0.323403 -1.239474
v -0.119094 0.276229 -1.239474
v 0.068756 0.323403 -1.239474
v -0.062193 0.058330 -1.291658
v 0.060767 0.058330 -1.291658
v 0.120787 0.111943 -1.291658
v 0.140452 0.170324 -1.291658
v -0.141878 0.170324 -1.291658
v -0.122213 0.111943 -1.291658
v 0.140452 0.216435 -1.291658
v 0.117667 0.276229 -1.291658
v -0.141878 0.216435 -1.291658
v -0.070182 0.323403 -1.291658
v -0.119094 0.276229 -1.291658
v 0.068756 0.323403 -1.291658
v -0.070873 0.039350 -1.006134
v 0.069447 0.039350 -1.006134
v 0.137940 0.100531 -1.006134
v -0.139366 0.100531 -1.006134
v 0.160381 0.167154 -1.006134
v -0.161807 0.167154 -1.006134
v 0.160381 0.219775 -1.006134
v -0.161807 0.219775 -1.006134
v 0.134380 0.288010 -1.006134
v -0.135806 0.288010 -1.006134
v 0.078563 0.341844 -1.006134
v -0.079989 0.341844 -1.006134
v -0.070041 0.380076 1.008422
v 0.068615 0.380076 1.008422
v -0.072255 0.380076 -0.166973
v 0.070829 0.380076 -0.166973
v -0.070041 0.466018 1.008422
v 0.068615 0.466018 1.008422
v -0.072255 0.466018 -0.166973
v 0.070829 0.466018 -0.166973
v -0.046778 0.466018 0.929211
v 0.045352 0.466018 0.929211
v -0.048250 0.466018 0.666381
v 0.046824 0.466018 0.666381
v -0.046778 0.581815 0.929211
v 0.045352 0.581815 0.929211
v -0.048250 0.581815 0.666381
v 0.046824 0.581815 0.666381
vt 0.375000 0.510069
vt 0.125000 0.520138
vt 0.125000 0.510069
vt 0.375000 0.623916
vt 0.125000 0.688862
vt 0.125000 0.623916
vt 0.375000 0.520138
vt 0.375000 0.510069
vt 0.375000 0.520138
vt 0.125000 0.688862
vt 0.125000 0.623916
vt 0.125000 0.623916
vt 0.125000 0.520138
vt 0.125000 0.510069
vt 0.125000 0.510069
vt 0.375000 0.623916
vt 0.375000 0.623916
vt 0.125000 0.520138
vt 0.125000 0.510069
vt 0.375000 0.520138
vt 0.375000 0.510069
vt 0.375000 0.520138
vt 0.125000 0.520138
vt 0.125000 0.510069
vt 0.375000 0.623916
vt 0.375000 0.623916
vt 0.375000 0.510069
vt 0.375000 0.520138
vt 0.125000 0.623916
vt 0.125000 0.688862
vt 0.125000 0.623916
vt 0.125000 0.688862
vt 0.375000 0.510069
vt 0.375000 0.520138
vt 0.375000 0.520138
vt 0.125000 0.520138
vt 0.125000 0.510069
vt 0.375000 0.623916
vt 0.125000 0.623916
vt 0.125000 0.688862
vt 0.375000 0.510069
vt 0.375000 0.510069
vt 0.375000 0.510069
vt 0.375000 0.510069
vt 0.375000 0.510069
vt 0.375000 0.510069
vt 0.125000 0.510069
vt 0.375000 0.510069
vt 0.375000 0.510069
vt 0.125000 0.510069
vt 0.375000 0.510069
vt 0.375000 0.510069
vt 0.125000 0.510069
vt 0.125000 0.510069
vt 0.125000 0.510069
vt 0.125000 0.510069
vt 0.125000 0.510069
vt 0.125000 0.510069
vt 0.125000 0.510069
vt 0.125000 0.510069
vt 0.125000 0.510069
vt 0.375000 0.510069
vt 0.125000 0.510069
vt 0.375000 0.510069
vt 0.375000 0.510069
vt 0.375000 0.510069
vt 0.375000 0.510069
vt 0.375000 0.510069
vt 0.375000 0.510069
vt 0.375000 0.510069
vt 0.125000 0.510069
vt 0.125000 0.510069
vt 0.125000 0.510069
vt 0.125000 0.510069
vt 0.125000 0.510069
vt 0.125000 0.510069
vt 0.375000 0.510069
vt 0.125000 0.688862
vt 0.125000 0.688862
vt 0.125000 0.688862
vt 0.125000 0.688862
vt 0.125000 0.688862
vt 0.125000 0.688862
vt 0.125000 0.688862
vt 0.375000 0.688862
vt 0.375000 0.688862
vt 0.375000 0.688862
vt 0.125000 0.688862
vt 0.125000 0.688862
vt 0.125000 0.688862
vt 0.125000 0.688862
vt 0.125000 0.688862
vt 0.125000 0.688862
vt 0.375000 0.688862
vt 0.375000 0.688862
vt 0.375000 0.688862
vt 0.375000 0.688862
vt 0.375000 0.688862
vt 0.125000 0.688862
vt 0.375000 0.688862
vt 0.375000 0.688862
vt 0.125000 0.688862
vt 0.375000 0.688862
vt 0.375000 0.688862
vt 0.375000 0.688862
vt 0.375000 0.688862
vt 0.375000 0.688862
vt 0.375000 0.688862
vt 0.375000 0.688862
vt 0.375000 0.688862
vt 0.125000 0.688862
vt 0.125000 0.688862
vt 0.125000 0.688862
vt 0.125000 0.688862
vt 0.375000 0.688862
vt 0.125000 0.688862
vt 0.125000 0.688862
vt 0.375000 0.688862
vt 0.125000 0.688862
vt 0.125000 0.688862
vt 0.375000 0.688862
vt 0.125000 0.688862
vt 0.375000 0.688862
vt 0.375000 0.688862
vt 0.375000 0.688862
vt 0.375000 0.688862
vt 0.375000 0.688862
vt 0.375000 0.688862
vt 0.375000 0.688862
vt 0.125000 0.688862
vt 0.125000 0.688862
vt 0.125000 0.688862
vt 0.125000 0.688862
vt 0.375000 0.688862
vt 0.125000 0.688862
vt 0.125000 0.688862
vt 0.375000 0.688862
vt 0.375000 0.688862
vt 0.375000 0.688862
vt 0.375000 0.688862
vt 0.375000 0.688862
vt 0.125000 0.688862
vt 0.375000 0.688862
vt 0.375000 0.688862
vt 0.125000 0.520138
vt 0.125000 0.520138
vt 0.125000 0.520138
vt 0.375000 0.510069
vt 0.125000 0.510069
vt 0.125000 0.510069
vt 0.125000 0.520138
vt 0.125000 0.510069
vt 0.375000 0.520138
vt 0.375000 0.510069
vt 0.375000 0.520138
vt 0.125000 0.520138
vt 0.375000 0.510069
vt 0.125000 0.510069
vt 0.375000 0.520138
vt 0.375000 0.510069
vn 0.0000 -1.0000 0.0000
vn 0.0000 -0.9395 -0.3427
vn -0.9477 -0.3192 0.0045
vn 0.8852 -0.2982 -0.3572
vn 0.9506 -0.3103 0.0039
vn -0.9461 -0.3187 -0.0573
vn 0.6778 -0.7353 0.0014
vn 0.6221 -0.6964 -0.3578
vn 1.0000 0.0000 0.0047
vn -0.6662 -0.7458 0.0027
vn -0.6651 -0.7446 -0.0574
vn -1.0000 0.0000 0.0047
vn 0.9381 0.3464 0.0037
vn -0.9329 0.3555 -0.0570
vn -0.9344 0.3561 0.0044
vn 0.8733 0.3328 -0.3558
vn 0.9339 0.0000 -0.3577
vn -0.9984 0.0000 -0.0574
vn 0.0000 1.0000 0.0000
vn 0.7054 0.7088 0.0016
vn -0.6930 0.7186 -0.0578
vn 0.0000 0.9986 -0.0531
vn 0.6477 0.6715 -0.3600
vn -0.6942 0.7198 0.0027
vn -0.5388 0.0000 0.8424
vn 0.0000 0.0000 1.0000
vn -0.5062 0.1869 0.8419
vn 0.0000 -0.5455 0.8381
vn 0.3606 -0.3912 0.8467
vn 0.5062 0.1869 0.8419
vn 0.3737 0.3755 0.8481
vn 0.5388 0.0000 0.8424
vn 0.5117 -0.1670 0.8428
vn 0.0000 0.5565 0.8308
vn -0.3737 0.3755 0.8481
vn -0.3606 -0.3912 0.8467
vn -0.5117 -0.1670 0.8428
vn -0.9499 -0.3100 0.0402
vn -0.7849 -0.2562 0.5642
vn -0.6772 -0.7347 0.0409
vn -0.5567 -0.6039 0.5704
vn -0.7048 0.7082 0.0411
vn -0.5783 0.5810 0.5727
vn 0.0000 0.9993 0.0383
vn 0.0000 0.8379 0.5459
vn 0.9499 -0.3100 0.0402
vn 0.7849 -0.2562 0.5642
vn 0.9992 0.0000 0.0401
vn 0.8260 0.0000 0.5636
vn 0.7048 0.7082 0.0411
vn 0.5783 0.5810 0.5727
vn 0.9373 0.3461 0.0401
vn 0.7754 0.2863 0.5628
vn 0.6772 -0.7347 0.0409
vn 0.5567 -0.6039 0.5704
vn 0.0000 -0.9992 0.0395
vn 0.0000 -0.8306 0.5569
vn -0.9373 0.3461 0.0401
vn -0.7754 0.2863 0.5628
vn -0.9992 0.0000 0.0401
vn -0.8260 0.0000 0.5636
vn -0.0000 0.0000 -1.0000
vn 0.0000 0.1310 0.9914
vn 0.1141 0.0435 -0.9925
vn -0.1152 -0.0388 0.9926
vn -0.1141 0.0435 0.9925
vn -0.0808 -0.0905 -0.9926
vn 0.1152 -0.0388 0.9926
vn 0.0836 0.0867 -0.9927
vn -0.0836 0.0867 0.9927
vn 0.0808 -0.0905 -0.9926
vn 0.0000 -0.1273 0.9919
vn 0.0000 0.1310 -0.9914
vn -0.1214 0.0000 0.9926
vn 1.0000 0.0000 0.0000
vn 0.6942 0.7198 0.0000
vn 0.6662 -0.7458 0.0000
vn -0.9345 0.3561 0.0000
vn -1.0000 0.0000 0.0000
vn -0.9477 -0.3192 0.0000
vn -0.6662 -0.7458 0.0000
vn -0.6942 0.7198 0.0000
vn 0.9477 -0.3192 0.0000
vn 0.9345 0.3561 0.0000
vn 0.0808 -0.0905 0.9926
vn 0.1214 0.0000 -0.9926
vn 0.0836 0.0867 0.9927
vn -0.0808 -0.0905 0.9926
vn -0.1213 0.0000 -0.9926
vn 0.0000 -0.1273 -0.9919
vn 0.1141 0.0435 0.9925
vn -0.0836 0.0867 -0.9927
vn 0.1152 -0.0388 -0.9926
vn 0.1214 0.0000 0.9926
vn -0.1141 0.0435 -0.9925
vn -0.1152 -0.0388 -0.9926
vn 0.8829 0.4695 0.0000
vn -0.8829 0.4695 0.0000
vn 0.1653 -0.9862 0.0000
vn 0.1571 0.9876 0.0000
vn -0.1571 0.9876 0.0000
vn -0.1653 -0.9862 0.0000
vn -0.9094 -0.4159 0.0000
vn 0.9094 -0.4159 0.0000
vn 0.6930 0.7186 -0.0578
vn 0.0000 0.9426 -0.3340
vn -0.6477 0.6715 -0.3600
vn -0.9339 0.0000 -0.3577
vn 0.9984 0.0000 -0.0574
vn 0.9329 0.3555 -0.0570
vn -0.8733 0.3328 -0.3558
vn -0.6221 -0.6964 -0.3578
vn 0.6651 -0.7446 -0.0574
vn -0.8852 -0.2982 -0.3572
vn 0.9461 -0.3187 -0.0573
vn 0.0000 -0.9985 -0.0547
vn -1.0000 0.0000 0.0019
vn 1.0000 0.0000 0.0019
vn -1.0000 0.0000 0.0056
vn 1.0000 0.0000 0.0056
vn -0.9506 -0.3103 0.0039
vn 0.9477 -0.3192 0.0045
vn 0.6662 -0.7458 0.0027
vn -0.6778 -0.7353 0.0014
vn 0.9344 0.3561 0.0044
vn -0.9381 0.3464 0.0037
vn 0.6942 0.7198 0.0027
vn -0.7054 0.7088 0.0016
vn 0.1213 0.0000 -0.9926
vn -0.1214 0.0000 -0.9926
usemtl None
s off
f 4/1/1 5/2/1 3/3/1
f 133/4/2 2/5/2 134/6/2
f 13/7/3 10/8/3 12/9/3
f 17/10/4 137/11/4 135/12/4
f 14/13/5 9/14/5 16/15/5
f 136/16/6 12/9/6 138/17/6
f 5/2/7 16/15/7 3/3/7
f 2/5/8 135/12/8 134/6/8
f 11/18/9 21/19/9 9/14/9
f 6/20/10 15/21/10 13/7/10
f 133/4/11 13/7/11 136/16/11
f 10/8/12 24/22/12 12/9/12
f 21/19/13 29/23/13 27/24/13
f 24/22/14 142/25/14 140/26/14
f 22/27/15 30/28/15 24/22/15
f 139/29/16 26/30/16 141/31/16
f 137/11/17 20/32/17 139/29/17
f 12/9/18 140/26/18 138/17/18
f 34/33/19 147/34/19 36/35/19
f 27/24/20 35/36/20 33/37/20
f 30/28/21 144/38/21 142/25/21
f 36/35/22 143/39/22 144/38/22
f 141/31/23 32/40/23 143/39/23
f 28/41/24 36/35/24 30/28/24
f 50/42/25 44/43/25 51/44/25
f 40/45/26 41/46/26 39/47/26
f 51/44/27 46/48/27 53/49/27
f 56/50/28 38/51/28 57/52/28
f 60/53/29 37/54/29 56/50/29
f 63/55/30 45/56/30 43/57/30
f 62/58/31 47/59/31 45/56/31
f 67/60/32 43/57/32 39/47/32
f 67/60/33 42/61/33 60/53/33
f 70/62/34 47/59/34 66/63/34
f 53/49/35 48/64/35 70/62/35
f 71/65/36 38/51/36 41/46/36
f 50/42/37 41/46/37 40/45/37
f 10/8/38 72/66/38 49/67/38
f 49/67/39 71/65/39 50/42/39
f 15/21/40 58/68/40 72/66/40
f 72/66/41 57/52/41 71/65/41
f 28/41/42 69/69/42 34/33/42
f 54/70/43 70/62/43 69/69/43
f 33/37/44 69/69/44 65/71/44
f 69/69/45 66/63/45 65/71/45
f 9/14/46 59/72/46 16/15/46
f 68/73/47 60/53/47 59/72/47
f 9/14/48 64/74/48 68/73/48
f 68/73/49 63/55/49 67/60/49
f 27/24/50 65/71/50 61/75/50
f 61/75/51 66/63/51 62/58/51
f 21/19/52 61/75/52 64/74/52
f 64/74/53 62/58/53 63/55/53
f 16/15/54 55/76/54 3/3/54
f 59/72/55 56/50/55 55/76/55
f 3/3/56 58/68/56 4/1/56
f 55/76/57 57/52/57 58/68/57
f 22/27/58 54/70/58 28/41/58
f 52/77/59 53/49/59 54/70/59
f 10/8/60 52/77/60 22/27/60
f 49/67/61 51/44/61 52/77/61
f 82/78/62 103/79/62 80/80/62
f 76/81/62 77/82/62 74/83/62
f 2/5/26 87/84/26 17/10/26
f 73/85/62 102/86/62 78/87/62
f 84/88/62 104/89/62 82/78/62
f 74/83/62 99/90/62 98/91/62
f 26/30/26 91/92/26 92/93/26
f 78/87/62 101/94/62 75/95/62
f 81/96/62 105/97/62 107/98/62
f 96/99/63 118/100/63 94/101/63
f 104/89/64 127/102/64 103/79/64
f 90/103/65 113/104/65 114/105/65
f 95/106/66 117/107/66 93/108/66
f 97/109/67 126/110/67 102/86/67
f 87/84/68 112/111/68 88/112/68
f 108/113/69 128/114/69 104/89/69
f 94/101/70 119/115/70 95/106/70
f 98/91/71 123/116/71 122/117/71
f 85/118/72 110/119/72 86/120/72
f 106/121/73 132/122/73 108/113/73
f 93/108/74 113/104/74 89/123/74
f 1/124/26 90/103/26 85/118/26
f 18/125/26 89/123/26 90/103/26
f 25/126/26 93/108/26 19/127/26
f 32/40/19 83/128/19 31/129/19
f 83/128/62 107/98/62 106/121/62
f 17/10/26 88/112/26 8/130/26
f 31/129/26 95/106/26 25/126/26
f 77/82/62 100/131/62 99/90/62
f 32/40/26 92/93/26 96/99/26
f 112/111/75 127/102/75 115/132/75
f 120/133/19 130/134/19 118/100/19
f 116/135/76 132/122/76 120/133/76
f 110/119/77 123/116/77 111/136/77
f 119/115/78 129/137/78 117/107/78
f 117/107/79 125/138/79 113/104/79
f 113/104/80 126/110/80 114/105/80
f 114/105/81 121/139/81 109/140/81
f 109/140/1 122/117/1 110/119/1
f 118/100/82 131/141/82 119/115/82
f 111/136/83 124/142/83 112/111/83
f 115/132/84 128/114/84 116/135/84
f 86/120/85 111/136/85 87/84/85
f 103/79/86 124/142/86 100/131/86
f 96/99/87 116/135/87 120/133/87
f 85/118/88 114/105/88 109/140/88
f 105/97/89 125/138/89 129/137/89
f 98/91/90 121/139/90 97/109/90
f 92/93/91 115/132/91 116/135/91
f 106/121/92 131/141/92 130/134/92
f 99/90/93 124/142/93 123/116/93
f 91/92/94 112/111/94 115/132/94
f 107/98/95 129/137/95 131/141/95
f 102/86/96 125/138/96 101/94/96
f 106/121/97 31/129/97 83/128/97
f 84/88/98 96/99/98 108/113/98
f 106/121/1 96/99/1 94/101/1
f 76/81/75 20/32/75 8/130/75
f 80/80/99 91/92/99 20/32/99
f 91/92/79 100/131/79 88/112/79
f 88/112/100 76/81/100 8/130/100
f 101/94/101 7/143/101 75/95/101
f 101/94/75 93/108/75 89/123/75
f 79/144/102 93/108/102 105/97/102
f 19/127/79 75/95/79 7/143/79
f 1/124/1 74/83/1 2/5/1
f 86/120/103 74/83/103 98/91/103
f 98/91/19 85/118/19 86/120/19
f 1/124/104 97/109/104 73/85/104
f 29/23/105 143/39/105 35/36/105
f 144/38/106 32/40/106 31/129/106
f 142/25/107 31/129/107 25/126/107
f 138/17/108 19/127/108 7/143/108
f 11/18/109 139/29/109 23/145/109
f 23/145/110 141/31/110 29/23/110
f 140/26/111 25/126/111 19/127/111
f 1/124/112 136/16/112 18/125/112
f 134/6/113 14/13/113 5/2/113
f 18/125/114 138/17/114 7/143/114
f 135/12/115 11/18/115 14/13/115
f 6/20/116 134/6/116 5/2/116
f 147/34/62 152/146/62 148/147/62
f 33/37/19 145/148/19 34/33/19
f 33/37/19 148/147/19 146/149/19
f 36/35/19 148/147/19 35/36/19
f 150/150/19 156/151/19 154/152/19
f 145/148/117 151/153/117 147/34/117
f 148/147/118 150/150/118 146/149/118
f 146/149/26 149/154/26 145/148/26
f 155/155/62 160/156/62 156/151/62
f 150/150/19 153/157/19 149/154/19
f 152/146/19 155/155/19 156/151/19
f 149/154/19 155/155/19 151/153/19
f 158/158/19 159/159/19 157/160/19
f 153/157/119 159/159/119 155/155/119
f 156/151/120 158/158/120 154/152/120
f 154/152/26 157/160/26 153/157/26
f 4/1/1 6/20/1 5/2/1
f 133/4/2 1/124/2 2/5/2
f 13/7/121 15/21/121 10/8/121
f 17/10/4 8/130/4 137/11/4
f 14/13/122 11/18/122 9/14/122
f 136/16/6 13/7/6 12/9/6
f 5/2/123 14/13/123 16/15/123
f 2/5/8 17/10/8 135/12/8
f 11/18/9 23/145/9 21/19/9
f 6/20/124 4/1/124 15/21/124
f 133/4/11 6/20/11 13/7/11
f 10/8/12 22/27/12 24/22/12
f 21/19/125 23/145/125 29/23/125
f 24/22/14 30/28/14 142/25/14
f 22/27/126 28/41/126 30/28/126
f 139/29/16 20/32/16 26/30/16
f 137/11/17 8/130/17 20/32/17
f 12/9/18 24/22/18 140/26/18
f 34/33/19 145/148/19 147/34/19
f 27/24/127 29/23/127 35/36/127
f 30/28/21 36/35/21 144/38/21
f 36/35/22 35/36/22 143/39/22
f 141/31/23 26/30/23 32/40/23
f 28/41/128 34/33/128 36/35/128
f 50/42/25 40/45/25 44/43/25
f 38/51/26 37/54/26 42/61/26
f 42/61/26 39/47/26 41/46/26
f 39/47/26 43/57/26 40/45/26
f 42/61/26 41/46/26 38/51/26
f 43/57/26 45/56/26 46/48/26
f 45/56/26 47/59/26 46/48/26
f 47/59/26 48/64/26 46/48/26
f 46/48/26 44/43/26 43/57/26
f 44/43/26 40/45/26 43/57/26
f 51/44/27 44/43/27 46/48/27
f 56/50/28 37/54/28 38/51/28
f 60/53/29 42/61/29 37/54/29
f 63/55/30 62/58/30 45/56/30
f 62/58/31 66/63/31 47/59/31
f 67/60/32 63/55/32 43/57/32
f 67/60/33 39/47/33 42/61/33
f 70/62/34 48/64/34 47/59/34
f 53/49/35 46/48/35 48/64/35
f 71/65/36 57/52/36 38/51/36
f 50/42/37 71/65/37 41/46/37
f 10/8/38 15/21/38 72/66/38
f 49/67/39 72/66/39 71/65/39
f 15/21/40 4/1/40 58/68/40
f 72/66/41 58/68/41 57/52/41
f 28/41/42 54/70/42 69/69/42
f 54/70/43 53/49/43 70/62/43
f 33/37/44 34/33/44 69/69/44
f 69/69/45 70/62/45 66/63/45
f 9/14/46 68/73/46 59/72/46
f 68/73/47 67/60/47 60/53/47
f 9/14/48 21/19/48 64/74/48
f 68/73/49 64/74/49 63/55/49
f 27/24/50 33/37/50 65/71/50
f 61/75/51 65/71/51 66/63/51
f 21/19/52 27/24/52 61/75/52
f 64/74/53 61/75/53 62/58/53
f 16/15/54 59/72/54 55/76/54
f 59/72/55 60/53/55 56/50/55
f 3/3/56 55/76/56 58/68/56
f 55/76/57 56/50/57 57/52/57
f 22/27/58 52/77/58 54/70/58
f 52/77/59 51/44/59 53/49/59
f 10/8/60 49/67/60 52/77/60
f 49/67/61 50/42/61 51/44/61
f 82/78/62 104/89/62 103/79/62
f 74/83/62 73/85/62 75/95/62
f 73/85/62 78/87/62 75/95/62
f 75/95/62 79/144/62 76/81/62
f 74/83/62 75/95/62 76/81/62
f 79/144/62 81/96/62 82/78/62
f 81/96/62 83/128/62 82/78/62
f 83/128/62 84/88/62 82/78/62
f 82/78/62 80/80/62 79/144/62
f 80/80/62 76/81/62 79/144/62
f 2/5/26 86/120/26 87/84/26
f 73/85/62 97/109/62 102/86/62
f 84/88/62 108/113/62 104/89/62
f 74/83/62 77/82/62 99/90/62
f 26/30/26 20/32/26 91/92/26
f 78/87/62 102/86/62 101/94/62
f 81/96/62 79/144/62 105/97/62
f 96/99/63 120/133/63 118/100/63
f 104/89/64 128/114/64 127/102/64
f 90/103/65 89/123/65 113/104/65
f 95/106/66 119/115/66 117/107/66
f 97/109/67 121/139/67 126/110/67
f 87/84/68 111/136/68 112/111/68
f 108/113/69 132/122/69 128/114/69
f 94/101/70 118/100/70 119/115/70
f 98/91/71 99/90/71 123/116/71
f 85/118/72 109/140/72 110/119/72
f 106/121/73 130/134/73 132/122/73
f 93/108/74 117/107/74 113/104/74
f 1/124/26 18/125/26 90/103/26
f 18/125/26 7/143/26 89/123/26
f 25/126/26 95/106/26 93/108/26
f 32/40/19 84/88/19 83/128/19
f 83/128/62 81/96/62 107/98/62
f 17/10/26 87/84/26 88/112/26
f 31/129/26 94/101/26 95/106/26
f 77/82/62 76/81/62 100/131/62
f 32/40/26 26/30/26 92/93/26
f 112/111/75 124/142/75 127/102/75
f 120/133/19 132/122/19 130/134/19
f 116/135/76 128/114/76 132/122/76
f 110/119/77 122/117/77 123/116/77
f 119/115/78 131/141/78 129/137/78
f 117/107/79 129/137/79 125/138/79
f 113/104/80 125/138/80 126/110/80
f 114/105/81 126/110/81 121/139/81
f 109/140/1 121/139/1 122/117/1
f 118/100/82 130/134/82 131/141/82
f 111/136/83 123/116/83 124/142/83
f 115/132/84 127/102/84 128/114/84
f 86/120/85 110/119/85 111/136/85
f 103/79/129 127/102/129 124/142/129
f 96/99/87 92/93/87 116/135/87
f 85/118/88 90/103/88 114/105/88
f 105/97/130 101/94/130 125/138/130
f 98/91/90 122/117/90 121/139/90
f 92/93/91 91/92/91 115/132/91
f 106/121/92 107/98/92 131/141/92
f 99/90/93 100/131/93 124/142/93
f 91/92/94 88/112/94 112/111/94
f 107/98/95 105/97/95 129/137/95
f 102/86/96 126/110/96 125/138/96
f 106/121/97 94/101/97 31/129/97
f 84/88/98 32/40/98 96/99/98
f 106/121/1 108/113/1 96/99/1
f 76/81/75 80/80/75 20/32/75
f 80/80/99 103/79/99 91/92/99
f 91/92/79 103/79/79 100/131/79
f 88/112/100 100/131/100 76/81/100
f 101/94/101 89/123/101 7/143/101
f 101/94/75 105/97/75 93/108/75
f 79/144/102 19/127/102 93/108/102
f 19/127/79 79/144/79 75/95/79
f 1/124/1 73/85/1 74/83/1
f 86/120/103 2/5/103 74/83/103
f 98/91/19 97/109/19 85/118/19
f 1/124/104 85/118/104 97/109/104
f 29/23/105 141/31/105 143/39/105
f 144/38/106 143/39/106 32/40/106
f 142/25/107 144/38/107 31/129/107
f 138/17/108 140/26/108 19/127/108
f 11/18/109 137/11/109 139/29/109
f 23/145/110 139/29/110 141/31/110
f 140/26/111 142/25/111 25/126/111
f 1/124/112 133/4/112 136/16/112
f 134/6/113 135/12/113 14/13/113
f 18/125/114 136/16/114 138/17/114
f 135/12/115 137/11/115 11/18/115
f 6/20/116 133/4/116 134/6/116
f 147/34/62 151/153/62 152/146/62
f 33/37/19 146/149/19 145/148/19
f 33/37/19 35/36/19 148/147/19
f 36/35/19 147/34/19 148/147/19
f 150/150/19 152/146/19 156/151/19
f 145/148/117 149/154/117 151/153/117
f 148/147/118 152/146/118 150/150/118
f 146/149/26 150/150/26 149/154/26
f 155/155/62 159/159/62 160/156/62
f 150/150/19 154/152/19 153/157/19
f 152/146/19 151/153/19 155/155/19
f 149/154/19 153/157/19 155/155/19
f 158/158/19 160/156/19 159/159/19
f 153/157/119 157/160/119 159/159/119
f 156/151/120 160/156/120 158/158/120
f 154/152/26 158/158/26 157/160/26
